<!DOCTYPE svg PUBLIC "-//W3C//DTD SVG 1.1//EN" "http://www.w3.org/Graphics/SVG/1.1/DTD/svg11.dtd">
<svg version="1.1" xmlns="http://www.w3.org/2000/svg" x="0px" y="0px" width="188.1px" height="36.4px" viewBox="0 0 188.1 36.4">
<path class="logo-text" fill="#FFFFFF" d="M175.5,34.2c0.4,0,0.7,0,0.9,0c0.2,0,0.5,0,0.8,0c1.7,0,2.9-0.3,3.4-1c0.6-0.7,1.3-2.4,2.3-5.2
	l5.1-14.6H184l-3.1,10.9l-3.2-10.9h-4.3l5.4,15.5c0,0.1-0.1,0.4-0.3,0.9c-0.2,0.5-0.4,0.8-0.6,1c-0.2,0.2-0.5,0.3-0.9,0.3
	c-0.3,0-0.7,0.1-1.1,0l-0.5,0V34.2z"/>
<path class="logo-text" fill="#FFFFFF" d="M167.8,16.1v-2.6h-3.7v14.8h3.9v-7.1c0-1.2,0.1-2.1,0.4-2.6c1.1-2.1,4-1.8,4.7-1.5
	c-0.3-0.8-1.2-3.5-1.2-3.5C169.4,13.2,168.7,14.6,167.8,16.1z"/>
<path class="logo-text" fill="#FFFFFF" d="M154.8,25.5c-1.1,0-2-0.4-2.6-1.2s-0.9-1.9-0.9-3.4s0.3-2.6,0.9-3.4c0.6-0.8,1.5-1.2,2.6-1.2
	s2,0.4,2.6,1.2c0.6,0.8,0.9,1.9,0.9,3.4s-0.3,2.6-0.9,3.4C156.8,25.1,155.9,25.5,154.8,25.5L154.8,25.5z M162.3,20.9
	c0-2.1-0.6-4-1.9-5.5c-1.2-1.6-3.1-2.3-5.7-2.3s-4.4,0.8-5.7,2.3s-1.9,3.4-1.9,5.5c0,2.2,0.6,4,1.9,5.6c1.2,1.5,3.1,2.3,5.7,2.3
	s4.4-0.8,5.7-2.3C161.7,24.9,162.3,23.1,162.3,20.9L162.3,20.9z"/>
<path class="logo-text" fill="#FFFFFF" d="M140.2,17.1v8.3c0,0.9,0.2,1.6,0.7,2c0.7,0.7,1.9,1,3.7,1l1.8-0.1v-2.9c-0.1,0-0.3,0-0.4,0
	c-0.1,0-0.3,0-0.4,0c-0.8,0-1.3-0.1-1.4-0.2s-0.2-0.5-0.2-1.1v-7h1.2l1.2-3.5h-2.4V9.5h-3.8v4.1h-2.4v3.5H140.2z"/>
<path class="logo-text" fill="#FFFFFF" d="M137,18.8c-0.2-2.1-0.9-3.6-2.1-4.4c-1.2-0.8-2.7-1.2-4.6-1.2c-2.2,0-3.9,0.7-5.1,2.1
	c-1.2,1.4-1.9,3.4-1.9,5.9c0,2.2,0.6,4.1,1.7,5.5c1.1,1.4,2.9,2.1,5.3,2.1s4.2-0.8,5.4-2.5c0.8-1,1.2-2.2,1.3-3.3h-4
	c-0.1,0.8-0.3,1.4-0.7,1.9c-0.4,0.5-1,0.7-1.9,0.7c-1.3,0-2.2-0.6-2.6-1.8c-0.3-0.7-0.4-1.5-0.4-2.6c0-1.1,0.1-2,0.4-2.7
	c0.5-1.3,1.4-1.9,2.7-1.9c0.9,0,1.6,0.3,2,0.9c0.3,0.4,0.5,0.9,0.6,1.5H137z"/>
<path class="logo-text" fill="#FFFFFF" d="M117.8,22.5c0,1.3-0.4,2.2-1.1,2.7c-0.7,0.5-1.5,0.7-2.3,0.7c-0.5,0-1-0.1-1.4-0.4s-0.6-0.8-0.6-1.4
	c0-0.7,0.3-1.3,0.9-1.6c0.4-0.2,1-0.4,1.8-0.5l0.9-0.2c0.4-0.1,0.8-0.2,1-0.3c0.3-0.1,0.5-0.2,0.8-0.4V22.5z M114.1,19.4
	c-1.5,0.2-2.6,0.5-3.4,1c-1.4,0.8-2.1,2.1-2.1,4c0,1.4,0.4,2.5,1.3,3.3c0.9,0.8,2,1.1,3.3,1.1c1.1,0,2-0.2,2.8-0.7
	c0.7-0.4,1.3-0.9,1.9-1.5c0,0.3,0.1,0.6,0.1,0.9c0,0.3,0.1,0.5,0.2,0.8h4c0,0-0.6-1.2-0.6-2.1c0-0.7,0-1.2,0-1.7v-6.8
	c0-1.8-0.6-3-1.9-3.6c-1.3-0.6-2.7-1-4.3-1c-2.5,0-4.3,0.7-5.3,2c-0.6,0.8-1,1.9-1.1,3.2h3.7c0.1-0.6,0.3-1,0.6-1.4
	c0.4-0.5,1-0.7,2-0.7c0.8,0,1.5,0.1,1.9,0.3c0.4,0.2,0.6,0.6,0.6,1.3c0,0.5-0.3,0.9-0.8,1.1c-0.3,0.1-0.8,0.2-1.5,0.3L114.1,19.4z"
	/>
<path class="logo-text" fill="#FFFFFF" d="M102.7,9.4c-0.5,0.6-0.8,1.7-0.8,3.3l0,15.6h3.9V17.1h1.7l1.2-3.5h-2.9c0-0.5,0-1,0-1.2
	s0.1-0.6,0.3-0.8c0.3-0.4,1.6-0.4,2.5-0.3V8.1C107.3,8,103.9,7.6,102.7,9.4z"/>
<path class="logo-text" fill="#FFFFFF" d="M95.3,16.1v-2.6h-3.7v14.8h3.9v-7.1c0-1.2,0.2-2.1,0.4-2.6c1.1-1.9,2.5-1.7,3.7-1.5l1.2-3.5
	C96.9,12.7,96,15,95.3,16.1z"/>
<path class="logo-text" fill="#FFFFFF" d="M85.5,22.5c0,1.3-0.4,2.2-1.1,2.7c-0.7,0.5-1.5,0.7-2.3,0.7c-0.5,0-1-0.1-1.4-0.4
	s-0.6-0.8-0.6-1.4c0-0.7,0.3-1.3,0.9-1.6c0.4-0.2,1-0.4,1.8-0.5l0.9-0.2c0.4-0.1,0.8-0.2,1-0.3c0.3-0.1,0.5-0.2,0.8-0.4V22.5z
	 M81.8,19.4c-1.5,0.2-2.6,0.5-3.4,1c-1.4,0.8-2.1,2.1-2.1,4c0,1.4,0.4,2.5,1.3,3.3c0.9,0.8,2,1.1,3.3,1.1c1.1,0,2-0.2,2.8-0.7
	c0.7-0.4,1.3-0.9,1.9-1.5c0,0.3,0.1,0.6,0.1,0.9c0,0.3,0.1,0.5,0.2,0.8h4c0,0-0.6-1.2-0.6-2.1c0-0.7,0-1.2,0-1.7v-6.8
	c0-1.8-0.6-3-1.9-3.6c-1.3-0.6-2.7-1-4.3-1c-2.5,0-4.3,0.7-5.3,2c-0.6,0.8-1,1.9-1.1,3.2h3.7c0.1-0.6,0.3-1,0.6-1.4
	c0.4-0.5,1-0.7,2-0.7c0.8,0,1.5,0.1,1.9,0.3c0.4,0.2,0.6,0.6,0.6,1.3c0,0.5-0.3,0.9-0.8,1.1c-0.3,0.1-0.8,0.2-1.5,0.3L81.8,19.4z"/>
<path class="logo-text" fill="#FFFFFF" d="M68.8,17.1v8.3c0,0.9,0.2,1.6,0.7,2c0.7,0.7,1.9,1,3.7,1l1.8-0.1v-2.9c-0.1,0-0.3,0-0.4,0
	c-0.1,0-0.3,0-0.4,0c-0.8,0-1.3-0.1-1.4-0.2c-0.2-0.1-0.2-0.5-0.2-1.1v-7h1.2l1.2-3.5h-2.4V9.5h-3.8v4.1h-2.4v3.5H68.8z"/>
<path class="logo-text" fill="#FFFFFF" d="M50.4,22.1c0,2.1,0.8,3.7,2.3,4.9c1.5,1.2,3.6,1.8,6.2,1.8c2.6,0,4.6-0.6,6-1.8
	c1.4-1.2,2.1-2.7,2.1-4.6c0-1.8-0.6-3.1-1.8-4.1c-0.8-0.6-1.9-1.1-3.5-1.5l-3.5-0.8c-1.4-0.3-2.2-0.6-2.7-0.8c-0.6-0.4-1-0.9-1-1.6
	c0-0.8,0.3-1.4,1-1.8c0.7-0.4,1.5-0.7,2.6-0.7c1,0,1.8,0.2,2.5,0.5c0.8,0.4,1.3,1.1,1.5,1.9c1.3,0,2.2,0,4.1,0
	c-0.2-1.8-1-3.2-2.3-4.3c-1.5-1.1-3.3-1.7-5.5-1.7c-2.6,0-4.5,0.6-5.8,1.8s-2,2.7-2,4.5c0,2,0.7,3.4,2,4.3c0.8,0.6,2.3,1.1,4.4,1.5
	l2.2,0.5c1.3,0.3,2.2,0.6,2.8,0.9c0.6,0.4,0.9,0.9,0.9,1.5c0,1.1-0.6,1.9-1.8,2.3c-0.6,0.2-1.4,0.3-2.5,0.3c-1.7,0-2.9-0.4-3.6-1.2
	c-0.4-0.5-0.6-1.1-0.8-2.1H50.4z"/>
<polygon class="logo-color-darker" fill-rule="evenodd" clip-rule="evenodd" fill="#D35079" points="32.5,-0.1 8.5,-0.1 15.3,11.8 25.8,11.8 "/>
<polygon class="logo-color-darker" fill-rule="evenodd" clip-rule="evenodd" fill="#D35079" points="29.7,13.4 16.2,13.4 22.9,25.3 "/>
<polygon class="logo-color-main" fill-rule="evenodd" clip-rule="evenodd" fill="#F05D8C" points="27.4,36.3 6.7,-0.1 0,11.7 13.9,36.3 "/>
</svg>
